<svg xmlns:xlink="http://www.w3.org/1999/xlink" xmlns="http://www.w3.org/2000/svg" viewBox="0 0 112.31 29.375" width="114"  height="30" >
    <path d="M89.843 5.957L81.9 28.716h-7.147l-2.808-7.804-3.993 7.803-7.587.001-9.41-26.041h-.885V.935h11.89v1.74h-1.756l6.256 17.364 1.61 4.424.001-.019.043.122 1.332-2.553 1.694-3.33-2.166-5.968.001-.01-3.62-10.031h-.945V.934h11.78v1.74h-1.585l1.931 5.402c.022-.044.048-.09.07-.135.421-.809.878-1.731 1.394-2.654C79.478 2.645 81.45 0 84.489 0c1.386 0 2.676.951 6.044.951l1.056.006-.229.655c-.017.053-.06.105-.087.153a13.534 13.534 0 01-1.08 1.599 10.98 10.98 0 01-1.611 1.671 8.36 8.36 0 01-2.167 1.319c-.933.381-1.942.564-2.947.477-.747-.065-1.47-.275-2.204-.413-1.221-.229-2.227.839-2.814 1.714l-1.096 2.152c.523 1.458 3.654 10.142 3.654 10.142v-.041l4.201-12.051 4.634-2.377zm22.467 14.199c0 5.327-6.07 9.219-12.273 9.219-4.4 0-8.188-1.797-11.755-4.135l2.692-7.714c3.017 2.987 8.705 7.234 12.974 7.234 1.373 0 2.62-.61 2.62-2.194 0-3.413-10.238-3.681-14.398-8.465-1.059-1.219-1.73-2.726-1.73-4.658 0-5.312 4.779-9.042 10.838-9.042 2.467 0 5.082.947 7.162 2.239.32.199 1.246.837 1.246.837l.387.293.55-1.571 1.65.596-2.809 8.014c-2.378-2.07-7.628-6.095-10.999-6.102-1.219-.002-2.293.851-2.293 1.818-.001 4.659 16.138 2.715 16.138 13.631zm-74.167-4.84c-.935.558-1.896 1.39-2.815 2.355-.079.084-.158.168-.236.256l3.444-9.854.567 1.568 1.58 4.351c-.807.304-1.658.798-2.54 1.324zM45.196.935h-7.941l-9.099 26.051h-.918V2.676h2V.935H16.313v1.741h1.918V13.94h-7.216V2.675h2.131V.935H0v1.74h2.01v24.311H0v1.73h13.146v-1.729l-2.131-.001V15.668h7.216v11.317l-1.918.001v1.729l19.04-.001v-1.729h-2.657l.509-1.453.375-1.072c1.397-3.993 3.729-7.164 7.747-8.667l.679 1.878.626 1.731h.011l2.731 7.583h-2.796v1.729h13.056v-1.73H54.61L45.196.935z" fill="#093532"></path>
  </svg>