<svg xmlns="http://www.w3.org/2000/svg" viewBox="0 0 152 36" fill="none"><g clip-path="url(#clip0)"><path d="M37.1872 12.6891L26.3859 1.88785C25.7823 1.28146 25.0648 0.800287 24.2747 0.471957C23.4846 0.143627 22.6374 -0.0253906 21.7818 -0.0253906C20.9262 -0.0253906 20.079 0.143627 19.2889 0.471957C18.4988 0.800287 17.7813 1.28146 17.1777 1.88785L12.371 6.71757C14.8838 7.11839 17.1714 8.40197 18.8229 10.3378C20.4744 12.2736 21.3816 14.7348 21.3816 17.2794C21.3816 19.824 20.4744 22.2852 18.8229 24.221C17.1714 26.1569 14.8838 27.4404 12.371 27.8413L17.2007 32.6756C17.8043 33.282 18.5218 33.7631 19.3119 34.0915C20.102 34.4198 20.9492 34.5888 21.8048 34.5888C22.6604 34.5888 23.5076 34.4198 24.2977 34.0915C25.0878 33.7631 25.8053 33.282 26.4089 32.6756L37.1872 21.8697C38.4034 20.6517 39.0866 19.0007 39.0866 17.2794C39.0866 15.5581 38.4034 13.9072 37.1872 12.6891Z" fill="#1B191B"/><path d="M12.2236 6.86484L12.3709 6.7175C10.8432 6.47382 9.28081 6.56445 7.79153 6.98315C6.30224 7.40186 4.92151 8.13865 3.74459 9.14272C2.56767 10.1468 1.62258 11.3942 0.974515 12.799C0.326453 14.2037 -0.00915527 15.7323 -0.00915527 17.2794C-0.00915527 18.8264 0.326453 20.355 0.974515 21.7597C1.62258 23.1645 2.56767 24.4119 3.74459 25.416C4.92151 26.42 6.30224 27.1568 7.79153 27.5755C9.28081 27.9942 10.8432 28.0849 12.3709 27.8412L12.2236 27.6939C9.46267 24.9311 7.91176 21.1852 7.91176 17.2794C7.91176 13.3735 9.46267 9.62756 12.2236 6.86484Z" fill="#1B191B"/><path d="M70.7557 11.7129H74.2595V25.6679H70.7557V23.9598C70.0762 24.6465 69.2631 25.1866 68.3667 25.5469C67.4703 25.9072 66.5096 26.08 65.5439 26.0547C63.6948 26.0649 61.909 25.3815 60.5392 24.1394C59.0659 22.8732 58.3292 21.0454 58.3292 18.6927C58.3292 16.34 59.0659 14.549 60.5392 13.246C61.9078 12.002 63.6944 11.3183 65.5439 11.3307C66.5086 11.3102 67.4675 11.4847 68.3631 11.8439C69.2587 12.2031 70.0726 12.7395 70.7557 13.421V11.7129ZM66.3404 22.6937C67.4975 22.7611 68.6359 22.3784 69.5172 21.6255C69.9149 21.2541 70.2283 20.8018 70.4363 20.2991C70.6444 19.7964 70.7423 19.2549 70.7235 18.7111C70.7459 18.1642 70.6497 17.6189 70.4415 17.1126C70.2333 16.6064 69.918 16.1512 69.5172 15.7783C68.6075 15.0712 67.488 14.6873 66.3358 14.6873C65.1835 14.6873 64.0641 15.0712 63.1543 15.7783C62.745 16.1419 62.4219 16.5921 62.2084 17.0962C61.995 17.6004 61.8966 18.1458 61.9204 18.6927C61.897 19.2427 61.9959 19.7911 62.2101 20.2983C62.4243 20.8055 62.7484 21.2588 63.1589 21.6255C64.0414 22.3795 65.1817 22.7623 66.3404 22.6937Z" fill="#1B191B"/><path d="M90.5074 13.246C91.9531 14.5398 92.6897 16.363 92.6897 18.6927C92.6897 21.0223 91.9531 22.8732 90.5074 24.1393C89.1244 25.3779 87.3316 26.0602 85.4751 26.0547C84.5158 26.0842 83.5606 25.9164 82.6688 25.5615C81.777 25.2067 80.9677 24.6725 80.2908 23.992V30.5713H76.7871V11.6944H80.2908V13.3703C80.9695 12.6926 81.7793 12.1606 82.6707 11.8067C83.5622 11.4528 84.5164 11.2846 85.4751 11.3123C87.3344 11.31 89.1281 11.9992 90.5074 13.246ZM84.6786 22.6936C85.8522 22.7561 87.0052 22.3673 87.9015 21.6071C88.3 21.2364 88.6141 20.7843 88.8223 20.2813C89.0304 19.7784 89.1278 19.2366 89.1077 18.6927C89.1287 18.1486 89.0317 17.6065 88.8235 17.1035C88.6153 16.6004 88.3008 16.1483 87.9015 15.7783C87.0059 15.0163 85.8528 14.6259 84.6786 14.6871C83.5136 14.6223 82.3693 15.0137 81.4879 15.7783C81.0896 16.1491 80.7757 16.6013 80.5675 17.1042C80.3594 17.607 80.2619 18.1488 80.2816 18.6927C80.2601 19.2395 80.3568 19.7845 80.5649 20.2906C80.7731 20.7967 81.0879 21.252 81.4879 21.6255C82.3728 22.3817 83.5168 22.7647 84.6786 22.6936Z" fill="#1B191B"/><path d="M96.9302 24.2869C96.0717 23.6284 95.383 22.7742 94.9217 21.7955C94.4604 20.8167 94.2397 19.7419 94.2782 18.6606C94.2474 17.5884 94.4684 16.5238 94.9233 15.5523C95.3783 14.5809 96.0546 13.7295 96.898 13.0666C98.4658 11.9314 100.354 11.3236 102.289 11.3309C104.73 11.3309 107.23 12.3069 108.735 14.144C108.735 14.167 106.171 16.7131 106.171 16.7085C105.75 16.0684 105.172 15.5467 104.493 15.1929C103.814 14.8391 103.055 14.6651 102.289 14.6873C101.182 14.676 100.103 15.0395 99.2276 15.7186C98.7738 16.0641 98.4123 16.5164 98.1753 17.0353C97.9384 17.5542 97.8333 18.1236 97.8694 18.6929C97.8341 19.262 97.9396 19.8312 98.1764 20.3499C98.4133 20.8687 98.7744 21.3211 99.2276 21.6671C100.103 22.3446 101.182 22.7064 102.289 22.6938C103.85 22.6938 105.466 21.9618 106.203 20.6358L108.767 23.2003L108.74 23.2371C108.063 24.077 107.192 24.7404 106.203 25.1709C104.98 25.7516 103.643 26.0535 102.289 26.0548C100.359 26.0612 98.4781 25.4408 96.9302 24.2869Z" fill="#1B191B"/><path d="M122.087 11.7129H125.591V25.6679H122.087V23.9598C121.407 24.646 120.594 25.1859 119.698 25.5461C118.801 25.9064 117.841 26.0795 116.875 26.0547C115.028 26.0638 113.244 25.3804 111.875 24.1394C110.402 22.8732 109.665 21.0454 109.665 18.6927C109.665 16.34 110.402 14.549 111.875 13.246C113.244 12.002 115.03 11.3183 116.88 11.3307C117.844 11.3102 118.803 11.4847 119.699 11.8439C120.595 12.2031 121.408 12.7395 122.092 13.421L122.087 11.7129ZM117.672 22.6937C118.831 22.7575 119.971 22.3679 120.848 21.6071C121.248 21.2367 121.562 20.7847 121.771 20.2818C121.98 19.7789 122.078 19.2369 122.059 18.6927C122.079 18.1484 121.982 17.6061 121.773 17.1031C121.564 16.6001 121.248 16.1482 120.848 15.7783C119.94 15.0708 118.821 14.6867 117.669 14.6867C116.518 14.6867 115.399 15.0708 114.49 15.7783C114.082 16.1431 113.76 16.5935 113.547 17.0974C113.334 17.6012 113.234 18.146 113.256 18.6927C113.232 19.2424 113.33 19.7906 113.544 20.2977C113.757 20.8048 114.08 21.2583 114.49 21.6255C115.373 22.3795 116.513 22.7623 117.672 22.6937Z" fill="#1B191B"/><path d="M131.622 13.863C133.183 12.1825 135.186 11.676 137.571 11.676V14.9726C134.979 14.9726 131.622 16.0407 131.622 19.3695V25.6679H128.118V11.7129H131.622V13.863Z" fill="#1B191B"/><path d="M55.6496 21.6256C55.5495 21.9572 55.3384 22.2444 55.0517 22.4389C54.765 22.6333 54.4202 22.7233 54.075 22.6938C53.0483 22.6938 52.3991 22.017 52.3991 20.8107V15.0693H56.8743V11.7129H52.3991V7.00293L48.8954 9.0932V11.7129H45.4285V15.0693H48.8723V21.2803C48.8469 21.9284 48.9659 22.574 49.2207 23.1704C49.4755 23.7669 49.8598 24.2992 50.3457 24.7288C51.3664 25.631 52.6952 26.1057 54.0566 26.0548C54.8216 26.0737 55.5813 25.9229 56.281 25.6133C56.9808 25.3036 57.6032 24.8427 58.1036 24.2638L58.1727 24.1855C58.1727 24.1855 55.6542 21.6256 55.6496 21.6256Z" fill="#1B191B"/><path d="M149.463 21.6256C149.365 21.9573 149.155 22.2449 148.868 22.4395C148.582 22.6342 148.238 22.724 147.893 22.6938C146.862 22.6938 146.213 22.017 146.213 20.8107V15.0693H150.688V11.7129H146.213V7.00293H146.19L142.686 9.0932V11.7129H139.242V15.0693H142.686V21.2803C142.66 21.9284 142.779 22.574 143.034 23.1704C143.289 23.7669 143.673 24.2992 144.159 24.7288C145.18 25.631 146.509 26.1057 147.87 26.0548H147.893C148.657 26.0724 149.414 25.9209 150.112 25.6113C150.811 25.3016 151.431 24.8415 151.931 24.2638L152 24.1855C152 24.1855 149.472 21.6256 149.463 21.6256Z" fill="#1B191B"/></g><defs><clipPath id="clip0"><rect width="152" height="35.497" fill="white"/></clipPath></defs></svg>