<svg xmlns="http://www.w3.org/2000/svg" viewBox="0 0 95 24" fill="none"><path d="M0 23.8062L8.81781 0.219177H13.4332L22.251 23.8062H18.0972L15.8623 17.9762H6.19433L4.00809 23.8062H0ZM7.28744 14.6726H14.7935L11.0283 4.39731L7.28744 14.6726Z" fill="black"/><path d="M23.4171 0.218674H27.0608V23.8057H23.4171V0.218674Z" fill="black"/><path d="M30.5101 1.36033C31.2874 0.583 32.502 0.194336 34.1538 0.194336H39.1579V3.40081H34.6639C34.081 3.40081 33.6437 3.54656 33.3765 3.81377C33.1093 4.08097 32.9635 4.51822 32.9635 5.10122V6.5587H39.1093V9.76518H32.9635V23.8057H29.3198V4.83401C29.3198 3.30365 29.7085 2.13765 30.5101 1.36033Z" fill="black"/><path d="M50.6963 6.53445V9.93526H48.2915C46.7854 9.93526 45.6923 10.4211 45.0121 11.3928C44.3319 12.3644 43.9919 13.6033 43.9919 15.1093V23.8057H40.3481V6.55875H43.5789L43.9919 9.15793C44.4777 8.35632 45.1336 7.72474 45.9109 7.2632C46.6882 6.80166 47.757 6.58304 49.0688 6.58304H50.6963V6.53445Z" fill="black"/><path d="M51.9352 10.5425C52.6396 9.20647 53.6356 8.16193 54.8987 7.43319C56.1619 6.70444 57.6194 6.34007 59.2712 6.34007C60.923 6.34007 62.4048 6.68015 63.6679 7.36031C64.9311 8.04048 65.927 8.98784 66.6558 10.2267C67.3845 11.4656 67.7732 12.9231 67.7732 14.5749C67.7732 15.0364 67.7489 15.4737 67.676 15.9595H54.6801V16.1538C54.7773 17.6599 55.2388 18.8502 56.089 19.7247C56.9392 20.5992 58.0809 21.0364 59.4898 21.0364C60.6072 21.0364 61.5546 20.7692 62.3319 20.2348C63.0849 19.7004 63.5951 18.9716 63.838 18H67.4817C67.1659 19.749 66.3157 21.1822 64.9311 22.3239C63.5465 23.4413 61.8218 24 59.757 24C57.9594 24 56.3805 23.6356 55.0445 22.9069C53.7084 22.1781 52.6639 21.1579 51.9352 19.8218C51.2064 18.4858 50.842 16.9554 50.842 15.2065C50.8663 13.4332 51.2307 11.8785 51.9352 10.5425ZM64.0809 13.2874C63.9351 12.0243 63.425 11.0526 62.5748 10.3482C61.7246 9.64371 60.6801 9.27934 59.3926 9.27934C58.2024 9.27934 57.1821 9.64371 56.3076 10.3725C55.4331 11.1012 54.9473 12.0729 54.8016 13.2874H64.0809Z" fill="black"/><path d="M86.4534 0.218674V23.8057H83.2955L82.8582 21.2065C81.4979 23.077 79.6032 24 77.2226 24C75.6437 24 74.2348 23.6357 73.0202 22.9312C71.7813 22.2268 70.8097 21.2065 70.1295 19.8705C69.425 18.5345 69.085 16.9555 69.085 15.1579C69.085 13.4089 69.4493 11.8543 70.1538 10.5183C70.8582 9.18223 71.8299 8.1377 73.0688 7.40895C74.3076 6.68021 75.6922 6.31584 77.2469 6.31584C78.5101 6.31584 79.6032 6.53446 80.5505 6.996C81.4979 7.45754 82.2509 8.08911 82.8339 8.89073V0.218674H86.4534ZM81.4736 19.3361C82.3967 18.2915 82.8582 16.9069 82.8582 15.2308C82.8582 13.5061 82.3967 12.0972 81.4736 11.0284C80.5505 9.95956 79.336 9.42515 77.8299 9.42515C76.3238 9.42515 75.1092 9.95956 74.1862 11.0284C73.2631 12.0972 72.8016 13.4818 72.8016 15.1579C72.8016 16.8583 73.2631 18.243 74.1862 19.3118C75.1092 20.3806 76.3238 20.915 77.8299 20.915C79.336 20.9393 80.5505 20.4049 81.4736 19.3361Z" fill="black"/><path d="M91.3602 6.75303C93.225 6.75303 94.7367 5.24131 94.7367 3.37652C94.7367 1.51172 93.225 0 91.3602 0C89.4954 0 87.9836 1.51172 87.9836 3.37652C87.9836 5.24131 89.4954 6.75303 91.3602 6.75303Z" fill="#EB2E2A"/></svg>